HIERARCHY
ROOT Hips
{
	OFFSET 0.00000 0.00000 0.00000
	CHANNELS 6 Xposition Yposition Zposition Zrotation Yrotation Xrotation 
	JOINT LHipJoint
	{
		OFFSET 0 0 0
		CHANNELS 3 Zrotation Yrotation Xrotation
		JOINT LeftUpLeg
		{
			OFFSET 1.84395 -1.68683 0.74144
			CHANNELS 3 Zrotation Yrotation Xrotation
			JOINT LeftLeg
			{
				OFFSET 2.27037 -6.23779 0.00000
				CHANNELS 3 Zrotation Yrotation Xrotation
				JOINT LeftFoot
				{
					OFFSET 2.56918 -7.05877 0.00000
					CHANNELS 3 Zrotation Yrotation Xrotation
					JOINT LeftToeBase
					{
						OFFSET 0.22276 -0.61202 1.71784
						CHANNELS 3 Zrotation Yrotation Xrotation
						End Site
						{
							OFFSET 0.00000 -0.00000 0.91613
						}
					}
				}
			}
		}
	}
	JOINT RHipJoint
	{
		OFFSET 0 0 0
		CHANNELS 3 Zrotation Yrotation Xrotation
		JOINT RightUpLeg
		{
			OFFSET -1.76833 -1.68684 0.74144
			CHANNELS 3 Zrotation Yrotation Xrotation
			JOINT RightLeg
			{
				OFFSET -2.49360 -6.85110 0.00000
				CHANNELS 3 Zrotation Yrotation Xrotation
				JOINT RightFoot
				{
					OFFSET -2.55538 -7.02085 0.00000
					CHANNELS 3 Zrotation Yrotation Xrotation
					JOINT RightToeBase
					{
						OFFSET -0.21516 -0.59115 1.68050
						CHANNELS 3 Zrotation Yrotation Xrotation
						End Site
						{
							OFFSET -0.00000 -0.00000 0.89604
						}
					}
				}
			}
		}
	}
	JOINT LowerBack
	{
		OFFSET 0 0 0
		CHANNELS 3 Zrotation Yrotation Xrotation
		JOINT Spine
		{
			OFFSET 0.06382 1.72312 -0.19613
			CHANNELS 3 Zrotation Yrotation Xrotation
			JOINT Spine1
			{
				OFFSET -0.00055 1.73507 0.23859
				CHANNELS 3 Zrotation Yrotation Xrotation
				JOINT Neck
				{
					OFFSET 0 0 0
					CHANNELS 3 Zrotation Yrotation Xrotation
					JOINT Neck1
					{
						OFFSET 0.03638 1.65562 0.09633
						CHANNELS 3 Zrotation Yrotation Xrotation
						JOINT Head
						{
							OFFSET 0.06388 1.62807 -0.32386
							CHANNELS 3 Zrotation Yrotation Xrotation
							End Site
							{
								OFFSET 0.00995 1.67644 -0.12021
							}
						}
					}
				}
				JOINT LeftShoulder
				{
					OFFSET 0 0 0
					CHANNELS 3 Zrotation Yrotation Xrotation
					JOINT LeftArm
					{
						OFFSET 3.09648 1.42991 0.28122
						CHANNELS 3 Zrotation Yrotation Xrotation
						JOINT LeftForeArm
						{
							OFFSET 5.11878 -0.00000 -0.00000
							CHANNELS 3 Zrotation Yrotation Xrotation
							JOINT LeftHand
							{
								OFFSET 3.59971 -0.00000 0.00000
								CHANNELS 3 Zrotation Yrotation Xrotation
								JOINT LeftFingerBase
								{
									OFFSET 0 0 0
									CHANNELS 3 Zrotation Yrotation Xrotation
									JOINT LeftHandIndex1
									{
										OFFSET 0.62877 -0.00000 0.00000
										CHANNELS 3 Zrotation Yrotation Xrotation
										End Site
										{
											OFFSET 0.50693 -0.00000 0.00000
										}
									}
								}
								JOINT LThumb
								{
									OFFSET 0 0 0
									CHANNELS 3 Zrotation Yrotation Xrotation
									End Site
									{
										OFFSET 0.51467 -0.00000 0.51467
									}
								}
							}
						}
					}
				}
				JOINT RightShoulder
				{
					OFFSET 0 0 0
					CHANNELS 3 Zrotation Yrotation Xrotation
					JOINT RightArm
					{
						OFFSET -3.33565 1.14597 0.05047
						CHANNELS 3 Zrotation Yrotation Xrotation
						JOINT RightForeArm
						{
							OFFSET -5.49020 -0.00000 0.00000
							CHANNELS 3 Zrotation Yrotation Xrotation
							JOINT RightHand
							{
								OFFSET -3.20659 -0.00000 -0.00000
								CHANNELS 3 Zrotation Yrotation Xrotation
								JOINT RightFingerBase
								{
									OFFSET 0 0 0
									CHANNELS 3 Zrotation Yrotation Xrotation
									JOINT RightHandIndex1
									{
										OFFSET -0.69188 -0.00000 0.00000
										CHANNELS 3 Zrotation Yrotation Xrotation
										End Site
										{
											OFFSET -0.55781 -0.00000 0.00000
										}
									}
								}
								JOINT RThumb
								{
									OFFSET 0 0 0
									CHANNELS 3 Zrotation Yrotation Xrotation
									End Site
									{
										OFFSET -0.56633 -0.00000 0.56633
									}
								}
							}
						}
					}
				}
			}
		}
	}
}
MOTION
Frames: 7
Frame Time: .0083333
0.0191 17.3707 8.5243 0 0 0 0 0 0 -21 0 0 0 0 0 0 0 0 0 0 0 0 0 0 21 0 0 0 0 0 0 0 0 0 0 0 0 0 0 0 0 0 0 0 0 0 0 -16 0 0 21 0 0 11 0 0 0 -8 0 0 0 0 0 0 0 0 0 0 0 0 0 0 0 0 0 0 0 0 8 0 0 0 0 0 0 0 0 0 0 0 0 0 0 0 0 0
0.0191 17.3707 8.5243 -9.8270 -0.4918 9.0222 0.0000 0.0000 0.0000 -17.9764 -40.6194 25.5976 0.0679 -1.6809 -4.6245 -3.8688 42.4723 -47.4091 0.7520 5.5389 15.4522 0.0000 0.0000 0.0000 26.6830 25.1412 6.4120 -0.0202 -0.9168 2.5198 0.8137 -20.6535 -22.0260 -0.0221 -0.9598 2.6381 6.8803 1.8766 -2.6733 3.3698 2.9029 -9.3480 -0.3952 1.0794 -8.2244 -16.5586 -13.1364 -1.0881 11.7725 -19.6278 20.9353 4.5970 -9.7391 9.6147 -0.0000 -0.0000 0.0000 -96.8885 12.3100 -4.0967 7.3204 -12.4454 -0.7993 -0.0000 -0.0000 46.6081 15.9705 -10.2285 -2.9093 -7.1250 0.0000 -0.0000 -7.8372 19.4016 4.8339 -0.0000 -0.0000 0.0000 91.8167 -13.3221 -6.6674 -14.5412 23.5032 -3.0406 0.0000 0.0000 35.0777 10.7385 -34.5713 -6.1421 7.1250 -0.0000 -0.0000 47.9829 -57.8338 -17.7072
0.0201 17.3708 8.5266 -9.6723 -0.4520 8.9486 0.0000 0.0000 0.0000 -18.3114 -40.6984 25.7503 0.0652 -1.6479 -4.5336 -3.8370 42.4508 -47.4754 0.7336 5.4721 15.2600 0.0000 0.0000 0.0000 26.5353 25.0367 6.5201 -0.0191 -0.8913 2.4497 0.8152 -20.6681 -22.0386 -0.0188 -0.8848 2.4318 6.7677 1.8749 -2.6230 3.3135 2.8983 -9.3255 -0.3942 1.0831 -8.2287 -16.6564 -13.1470 -1.0889 11.8670 -19.6620 20.9628 4.6369 -9.7545 9.6517 -0.0000 -0.0000 0.0000 -96.8588 12.2761 -4.1968 7.2766 -12.3735 -0.7898 -0.0000 -0.0000 46.7893 16.1310 -10.1106 -2.9065 -7.1250 0.0000 -0.0000 -7.7250 19.5132 4.7440 -0.0000 -0.0000 0.0000 91.8222 -13.2785 -6.7205 -14.4853 23.4242 -3.0183 0.0000 0.0000 35.0005 10.6824 -34.7689 -6.1398 7.1250 -0.0000 -0.0000 48.1488 -57.9865 -17.9750
0.0213 17.3708 8.5277 -9.6463 -0.4286 8.9512 0.0000 0.0000 0.0000 -18.3531 -40.7074 25.7369 0.0643 -1.6366 -4.5024 -3.8346 42.4334 -47.4493 0.7265 5.4461 15.1853 0.0000 0.0000 0.0000 26.5017 24.9875 6.5199 -0.0188 -0.8843 2.4305 0.8185 -20.6691 -22.0038 -0.0100 -0.6462 1.7756 6.7701 1.8813 -2.6504 3.2913 2.9018 -9.3122 -0.4183 1.0848 -8.1962 -16.7207 -13.1529 -1.0770 11.9621 -19.6911 20.9678 4.6745 -9.7659 9.6739 -0.0000 -0.0000 0.0000 -96.8570 12.2244 -4.4407 7.2493 -12.3288 -0.7840 -0.0000 -0.0000 47.0345 16.2432 -9.9678 -2.8870 -7.1250 0.0000 -0.0000 -7.6471 19.6533 4.6712 -0.0000 -0.0000 0.0000 91.8699 -13.2875 -6.7477 -14.5492 23.5143 -3.0438 0.0000 0.0000 34.9655 10.7865 -34.8780 -6.2174 7.1250 -0.0000 -0.0000 48.3610 -58.0403 -18.1468
0.0215 17.3702 8.5276 -9.7219 -0.4028 8.9505 0.0000 0.0000 0.0000 -18.2487 -40.6982 25.7346 0.0652 -1.6477 -4.5329 -3.8225 42.4167 -47.4575 0.7284 5.4532 15.2058 0.0000 0.0000 0.0000 26.6120 25.0403 6.5494 -0.0190 -0.8903 2.4469 0.8160 -20.7054 -22.1043 -0.0013 -0.2372 0.6516 6.8266 1.8687 -2.6879 3.3207 2.8819 -9.2839 -0.4163 1.0740 -8.1440 -16.7578 -13.1648 -1.1127 12.0235 -19.7182 20.9901 4.6935 -9.7745 9.7038 0.0000 0.0000 0.0000 -96.8774 12.1827 -4.5638 7.2512 -12.3318 -0.7844 -0.0000 -0.0000 47.1044 16.3417 -9.8386 -2.8682 -7.1250 0.0000 -0.0000 -7.5789 19.7806 4.6070 0.0000 0.0000 0.0000 91.9195 -13.2690 -6.8299 -14.6223 23.6173 -3.0730 0.0000 0.0000 35.0318 10.8539 -34.8979 -6.2600 7.1250 -0.0000 -0.0000 48.4425 -58.0392 -18.1863
0.0168 17.3729 8.5345 -9.6422 -0.3687 9.0581 0.0000 0.0000 0.0000 -18.3055 -40.8627 25.7053 0.0658 -1.6555 -4.5545 -3.8434 42.5129 -47.5762 0.7258 5.4434 15.1777 0.0000 0.0000 0.0000 26.5396 25.2395 6.5776 -0.0180 -0.8667 2.3821 0.8230 -20.8403 -22.2970 -0.0030 -0.3539 0.9724 6.6004 1.8265 -3.0005 3.3585 2.7889 -9.2464 -0.2390 1.0530 -7.9334 -16.3738 -13.1932 -1.2489 11.6308 -19.6703 20.9794 4.5039 -9.7475 9.6301 -0.0000 -0.0000 0.0000 -96.8639 12.2301 -3.5764 7.3256 -12.4538 -0.8004 -0.0000 -0.0000 46.2322 16.5718 -9.6064 -2.8430 -7.1250 0.0000 -0.0000 -7.4180 20.0064 4.4697 -0.0000 -0.0000 0.0000 91.8353 -13.1634 -6.6697 -14.5591 23.5284 -3.0478 0.0000 0.0000 34.6746 10.8274 -35.0164 -6.2629 7.1250 -0.0000 -0.0000 48.5501 -58.1286 -18.3500
0.0101 17.3791 8.5487 -9.3406 -0.3330 9.3418 0.0000 0.0000 0.0000 -18.5630 -41.2243 25.5544 0.0652 -1.6480 -4.5337 -3.8770 42.6900 -47.8129 0.7378 5.4873 15.3038 0.0000 0.0000 0.0000 26.1421 25.5128 6.4932 -0.0156 -0.8054 2.2135 0.8578 -21.0909 -22.4182 -0.0179 -0.8649 2.3770 6.1156 1.7933 -3.6128 3.3380 2.6759 -9.2325 0.0282 1.0410 -7.5797 -15.7710 -13.2317 -1.4660 11.0353 -19.5989 21.0025 4.2145 -9.7058 9.5335 0.0000 0.0000 0.0000 -96.7939 12.3481 -1.7455 7.4576 -12.6699 -0.8291 -0.0000 -0.0000 44.7860 16.7245 -8.6464 -2.5865 -7.1250 0.0000 -0.0000 -7.3237 20.9891 4.2487 0.0000 0.0000 0.0000 91.6701 -12.9806 -6.3907 -14.3861 23.2840 -2.9790 0.0000 0.0000 34.0099 10.8110 -35.2516 -6.2895 7.1250 -0.0000 -0.0000 48.7979 -58.2977 -18.6831
